PathFileType	4	(X/Y/Z)	/tmp/tmpw5mnwk_y/Me_1/MarkerData/random_segment_0.trc
DataRate	CameraRate	NumFrames	NumMarkers	Units	OrigDataRate	OrigDataStartFrame	OrigNumFrames
100.089	100.089	9	38	m	100.089	422	1126
Frame#	Time	C7			CLAV			LANK			LASI			LBHD			LELB			LFHD			LFIN			LFRM			LHEE			LKNE			LPSI			LSHO			LTHI			LTIB			LTOE			LUPA			LWRA			LWRB			RANK			RBAK			RBHD			RELB			RFHD			RFIN			RFRM			RHEE			RKNE			RPSI			RSHO			RTHI			RTIB			RTOE			RUPA			RWRA			RWRB			STRN			T10		
		X1	Y1	Z1	X2	Y2	Z2	X3	Y3	Z3	X4	Y4	Z4	X5	Y5	Z5	X6	Y6	Z6	X7	Y7	Z7	X8	Y8	Z8	X9	Y9	Z9	X10	Y10	Z10	X11	Y11	Z11	X12	Y12	Z12	X13	Y13	Z13	X14	Y14	Z14	X15	Y15	Z15	X16	Y16	Z16	X17	Y17	Z17	X18	Y18	Z18	X19	Y19	Z19	X20	Y20	Z20	X21	Y21	Z21	X22	Y22	Z22	X23	Y23	Z23	X24	Y24	Z24	X25	Y25	Z25	X26	Y26	Z26	X27	Y27	Z27	X28	Y28	Z28	X29	Y29	Z29	X30	Y30	Z30	X31	Y31	Z31	X32	Y32	Z32	X33	Y33	Z33	X34	Y34	Z34	X35	Y35	Z35	X36	Y36	Z36	X37	Y37	Z37	X38	Y38	Z38

423	4.21625	-0.113406	1.4811	0.199966	-0.272477	1.3964	0.235682	-0.127765	0.0912148	0.222074	-0.170487	0.980652	0.308969	-0.234552	1.6298	0.310988	-0.242706	1.17238	0.511779	-0.362957	1.64354	0.284628	-0.452603	1.37577	0.371259	-0.371539	1.22055	0.444062	-0.0621357	0.0625316	0.150394	-0.192426	0.476454	0.270281	-0.0617339	1.02759	0.16088	-0.122614	1.46231	0.365866	-0.172374	0.66007	0.300574	-0.13449	0.23805	0.255439	-0.30133	0.0637005	0.175741	-0.15949	1.31707	0.470425	-0.376825	1.30415	0.366892	-0.427627	1.28547	0.413712	0.0301187	0.670788	-0.21267	-0.0915634	1.36504	0.0581088	-0.219041	1.62017	0.162385	-0.29718	1.22476	-0.13791	-0.342741	1.62797	0.157256	-0.543481	0.984562	-0.124604	-0.348717	1.1506	-0.15445	0.0354938	0.725395	-0.123596	-0.360758	0.59942	-0.14451	-0.0726895	1.03271	0.0971507	-0.228523	1.47934	0.0593723	-0.292195	0.904936	-0.0529179	-0.251055	0.629666	-0.189511	0.146885	0.543723	-0.225847	-0.277252	1.30366	-0.0854495	-0.457505	1.04133	-0.0744992	-0.455254	1.02067	-0.145419	-0.306482	1.23808	0.233989	-0.0701578	1.25273	0.165661
424	4.22624	-0.111285	1.48068	0.201643	-0.270393	1.39627	0.237375	-0.127803	0.0912446	0.221905	-0.168193	0.980426	0.310121	-0.231964	1.62982	0.31265	-0.251983	1.17642	0.511731	-0.360448	1.64357	0.286538	-0.452625	1.38353	0.363241	-0.377484	1.22707	0.439748	-0.0621524	0.0624636	0.150306	-0.192603	0.476292	0.270776	-0.0606599	1.02715	0.160253	-0.121105	1.46203	0.368012	-0.171136	0.659771	0.300946	-0.13486	0.237848	0.255479	-0.301373	0.0636423	0.175644	-0.163318	1.31834	0.471811	-0.378445	1.31014	0.3619	-0.431268	1.29296	0.407237	0.0172369	0.673753	-0.215604	-0.0898283	1.36452	0.059771	-0.216916	1.61995	0.163844	-0.292775	1.22421	-0.137509	-0.340619	1.62785	0.159112	-0.535381	0.979926	-0.135143	-0.342677	1.14938	-0.156456	0.0235654	0.728584	-0.126675	-0.371049	0.601598	-0.138681	-0.0727521	1.03247	0.0966025	-0.226685	1.47907	0.0609666	-0.295887	0.906108	-0.0499841	-0.262937	0.631252	-0.186909	0.136032	0.548427	-0.231254	-0.2738	1.30316	-0.084335	-0.451791	1.0368	-0.0815836	-0.446889	1.01715	-0.152467	-0.304294	1.23783	0.235823	-0.0685097	1.25239	0.167014
425	4.23623	-0.109283	1.4802	0.203263	-0.268384	1.39613	0.238953	-0.127902	0.0912781	0.221581	-0.166137	0.980211	0.310999	-0.229469	1.62979	0.314267	-0.260868	1.18075	0.511402	-0.358024	1.64358	0.288314	-0.452329	1.39093	0.355117	-0.382988	1.23356	0.43528	-0.0621403	0.0623959	0.15018	-0.192885	0.476071	0.271088	-0.0597206	1.02676	0.159707	-0.119659	1.46174	0.370059	-0.17003	0.659407	0.301314	-0.135302	0.237611	0.255438	-0.30144	0.06354	0.175507	-0.166901	1.31984	0.473268	-0.379668	1.31593	0.356744	-0.434432	1.30027	0.400653	0.00396013	0.675038	-0.218486	-0.088021	1.36396	0.0613909	-0.214835	1.61971	0.165253	-0.28785	1.22358	-0.13724	-0.338479	1.62766	0.160923	-0.52629	0.975379	-0.145911	-0.335872	1.14808	-0.158574	0.0121069	0.73012	-0.129576	-0.381951	0.604162	-0.132246	-0.0727581	1.03228	0.0961843	-0.224771	1.4788	0.0624544	-0.299394	0.907452	-0.0467931	-0.275205	0.632614	-0.183563	0.12376	0.55059	-0.237017	-0.270033	1.30264	-0.0834082	-0.445235	1.03232	-0.0889025	-0.437568	1.01363	-0.15949	-0.302052	1.23762	0.23765	-0.0667979	1.25205	0.168413
426	4.24623	-0.107347	1.4797	0.204835	-0.266442	1.39595	0.240424	-0.128077	0.0913481	0.221038	-0.164095	0.979858	0.311794	-0.22709	1.62968	0.31547	-0.269414	1.18526	0.510863	-0.355695	1.64352	0.289963	-0.451547	1.39802	0.346833	-0.388017	1.24001	0.430673	-0.0620343	0.0623721	0.149956	-0.193296	0.475769	0.271183	-0.0590104	1.02631	0.159257	-0.118318	1.46144	0.372054	-0.169132	0.658941	0.30168	-0.135955	0.237326	0.255327	-0.30156	0.0633847	0.175317	-0.170352	1.32136	0.474501	-0.380541	1.32145	0.351467	-0.436901	1.30753	0.393977	-0.00987769	0.674559	-0.221272	-0.0861026	1.3634	0.0629552	-0.212819	1.61946	0.166608	-0.28226	1.22282	-0.137052	-0.336539	1.62745	0.162491	-0.516162	0.970896	-0.156804	-0.328415	1.14666	-0.160603	0.000609922	0.729698	-0.132768	-0.393427	0.607229	-0.12525	-0.0726707	1.0321	0.0959147	-0.22276	1.47849	0.0638435	-0.302754	0.909024	-0.0434892	-0.287968	0.634012	-0.179541	0.109665	0.550215	-0.243141	-0.265884	1.30202	-0.082632	-0.438085	1.02806	-0.0961216	-0.427352	1.0101	-0.166433	-0.299806	1.23747	0.239481	-0.0650399	1.25171	0.16981
427	4.25622	-0.10537	1.47931	0.206444	-0.26456	1.39574	0.241776	-0.128114	0.0915251	0.220468	-0.162233	0.979451	0.312537	-0.224813	1.62952	0.316752	-0.277621	1.18986	0.51017	-0.353467	1.64342	0.291482	-0.450198	1.40482	0.33842	-0.392627	1.2464	0.425953	-0.0618822	0.0623513	0.149666	-0.193874	0.475414	0.271036	-0.0584938	1.02578	0.158928	-0.117075	1.46112	0.374034	-0.168588	0.658441	0.30182	-0.13693	0.236959	0.255112	-0.301712	0.0632061	0.17508	-0.173683	1.32288	0.475656	-0.381087	1.3267	0.346104	-0.438776	1.3147	0.387222	-0.0242069	0.672338	-0.22398	-0.0837941	1.36293	0.0645219	-0.210894	1.61916	0.167869	-0.27606	1.22192	-0.136941	-0.334629	1.62722	0.163927	-0.505	0.966496	-0.167737	-0.320386	1.14518	-0.162601	-0.0105232	0.72722	-0.136167	-0.405375	0.610905	-0.117697	-0.0724674	1.03191	0.0957821	-0.220665	1.47812	0.0651074	-0.306031	0.910874	-0.0401075	-0.301108	0.635588	-0.174912	0.0940301	0.547267	-0.249462	-0.261382	1.30122	-0.0818915	-0.430378	1.024	-0.103187	-0.416424	1.00664	-0.173348	-0.297595	1.23737	0.241289	-0.0632588	1.25134	0.171212
428	4.26621	-0.103426	1.47889	0.207993	-0.262728	1.39548	0.243002	-0.128164	0.0917169	0.219815	-0.160525	0.979013	0.313246	-0.222662	1.6293	0.318177	-0.285472	1.19455	0.50925	-0.351333	1.64324	0.292861	-0.44833	1.41138	0.32996	-0.396855	1.25273	0.421126	-0.061918	0.06212	0.149409	-0.194645	0.475023	0.270744	-0.0577642	1.02522	0.158756	-0.115955	1.46078	0.376001	-0.168311	0.657864	0.301863	-0.137992	0.236578	0.25472	-0.301846	0.063048	0.174846	-0.17694	1.3244	0.476778	-0.381345	1.33165	0.340641	-0.440249	1.32171	0.380449	-0.0388509	0.668431	-0.226656	-0.0814085	1.36245	0.0661161	-0.209006	1.61882	0.169032	-0.269469	1.22098	-0.136975	-0.332748	1.62693	0.165265	-0.492833	0.962196	-0.178601	-0.311819	1.14373	-0.164679	-0.0213467	0.722915	-0.139588	-0.417751	0.615283	-0.109642	-0.0721207	1.03167	0.0957893	-0.21847	1.47769	0.0662517	-0.309207	0.912992	-0.0367033	-0.314602	0.637447	-0.169926	0.0767079	0.541521	-0.255713	-0.256536	1.30036	-0.0813607	-0.42189	1.02005	-0.110335	-0.404621	1.00316	-0.179968	-0.295496	1.23731	0.243042	-0.0614323	1.25092	0.172645
429	4.2762	-0.10155	1.4784	0.209488	-0.260941	1.3952	0.244137	-0.128253	0.0918409	0.219194	-0.158923	0.978522	0.313916	-0.220635	1.62901	0.319251	-0.293079	1.19926	0.508014	-0.3493	1.64302	0.294121	-0.446014	1.41761	0.32148	-0.40076	1.25896	0.416154	-0.0619285	0.0618885	0.149187	-0.195491	0.474639	0.270527	-0.0567565	1.0246	0.158781	-0.114954	1.46045	0.377928	-0.16833	0.657245	0.301882	-0.138768	0.23623	0.254299	-0.301927	0.0629272	0.174664	-0.180112	1.32586	0.47779	-0.381354	1.33632	0.335113	-0.441398	1.32852	0.373598	-0.0539517	0.662896	-0.229132	-0.0790218	1.3619	0.0677452	-0.207151	1.61837	0.170119	-0.26256	1.22004	-0.137132	-0.330925	1.62658	0.1665	-0.479677	0.957967	-0.189275	-0.302702	1.14227	-0.166703	-0.0318537	0.716787	-0.142908	-0.43049	0.620445	-0.10112	-0.071618	1.03135	0.0959223	-0.216168	1.47719	0.0673052	-0.312314	0.915391	-0.0332662	-0.328386	0.639451	-0.164515	0.0575087	0.533021	-0.261728	-0.25136	1.29949	-0.0809604	-0.412627	1.01619	-0.117498	-0.391922	0.999615	-0.186204	-0.293548	1.23728	0.244714	-0.0595785	1.25042	0.1741
430	4.28619	-0.0996416	1.47791	0.211016	-0.259193	1.39488	0.245161	-0.128384	0.091783	0.218845	-0.157422	0.977992	0.314526	-0.218725	1.62871	0.319951	-0.300559	1.20393	0.506322	-0.3474	1.64278	0.295283	-0.443226	1.42355	0.312854	-0.404345	1.26507	0.411015	-0.061901	0.061736	0.149048	-0.196163	0.474325	0.270491	-0.0555259	1.02393	0.158962	-0.114035	1.46014	0.379812	-0.168669	0.6567	0.301973	-0.139087	0.235939	0.25404	-0.30195	0.0628582	0.17455	-0.183165	1.32731	0.478677	-0.381186	1.34072	0.329462	-0.442285	1.33512	0.36669	-0.0695708	0.655675	-0.231423	-0.0765866	1.36125	0.0693927	-0.205387	1.61787	0.171092	-0.255317	1.2191	-0.137345	-0.329193	1.6262	0.167634	-0.465546	0.953793	-0.199687	-0.29312	1.14081	-0.168631	-0.042261	0.708786	-0.146265	-0.443433	0.626481	-0.0921665	-0.0709492	1.03089	0.0961578	-0.213752	1.47665	0.068245	-0.315345	0.91815	-0.0298025	-0.342442	0.641639	-0.158693	0.0362695	0.521908	-0.26735	-0.24588	1.29858	-0.08062	-0.402377	1.01231	-0.124691	-0.37852	0.996186	-0.192258	-0.291821	1.23727	0.246268	-0.0577351	1.24984	0.175557
431	4.29618	-0.0976983	1.47748	0.212621	-0.257484	1.39454	0.24604	-0.128415	0.0917104	0.218737	-0.156063	0.977496	0.315079	-0.216924	1.62848	0.320742	-0.307824	1.20865	0.504414	-0.345666	1.64254	0.296275	-0.440194	1.42909	0.304111	-0.407647	1.271	0.405683	-0.0618836	0.061642	0.149003	-0.196572	0.474098	0.270638	-0.05452	1.02305	0.159229	-0.113209	1.45986	0.381701	-0.169193	0.656327	0.302156	-0.139133	0.235722	0.253993	-0.301944	0.0628413	0.174496	-0.18616	1.32875	0.479488	-0.380781	1.34491	0.323779	-0.442926	1.34146	0.359699	-0.0857924	0.646747	-0.233614	-0.0741466	1.36052	0.0711121	-0.203763	1.61743	0.17199	-0.247659	1.21808	-0.13751	-0.327532	1.6258	0.168684	-0.450451	0.949685	-0.209761	-0.283104	1.1394	-0.170452	-0.0532903	0.699074	-0.149906	-0.456389	0.63341	-0.0828871	-0.0701081	1.03028	0.096432	-0.211241	1.47614	0.0690466	-0.3182	0.92131	-0.0263644	-0.35666	0.644053	-0.152459	0.0131075	0.508507	-0.272466	-0.240121	1.29767	-0.0803138	-0.391161	1.00854	-0.131762	-0.364562	0.993021	-0.198019	-0.290366	1.23719	0.247681	-0.0558862	1.24926	0.17705
